<svg xmlns="http://www.w3.org/2000/svg" xmlns:xlink="http://www.w3.org/1999/xlink" xmlns:inkscape="http://www.inkscape.org/namespaces/inkscape" version="1.1" width="595.276" height="841.89" viewBox="0 0 595.276 841.89">
<defs>
<clipPath id="clip_1">
<path transform="matrix(1,0,0,-1,0,841.89)" d="M0 841.89H595.276V0H0Z"/>
</clipPath>
</defs>
<g inkscape:groupmode="layer" inkscape:label="Layer 1">
<g clip-path="url(#clip_1)">
<path transform="matrix(1,0,0,-1,45.6228,188.12659)" d="M0 0C-1.028 0-1.789 .31-2.282 .929-2.775 1.547-2.906 2.371-2.675 3.399L.472 18.319C.703 19.347 1.196 20.171 1.952 20.791 2.707 21.409 3.588 21.719 4.596 21.719H16.588L16.022 19.012H7.869L4.218 2.707H12.559L11.993 0Z" fill="#FFFFFF"/>
<path transform="matrix(1,0,0,-1,76.721,173.14374)" d="M0 0H-6.516L-9.726-14.983H-16.431L-13.314-.315C-13.146 .482-12.753 1.133-12.134 1.637-11.515 2.141-10.807 2.392-10.009 2.392H.504Z" fill="#FFFFFF"/>
<path transform="matrix(1,0,0,-1,85.1575,173.14374)" d="M0 0-1.669-7.743H1.951L3.619 0ZM-6.799-.315C-6.632 .482-6.238 1.133-5.619 1.637-5 2.141-4.292 2.392-3.494 2.392H8.089C8.887 2.392 9.479 2.141 9.867 1.637 10.256 1.133 10.366 .482 10.198-.315L8.121-10.198H-2.172L-2.707-12.591H7.586L7.082-14.983H-6.516C-7.544-14.983-8.306-14.673-8.798-14.054-9.291-13.436-9.422-12.612-9.191-11.583Z" fill="#FFFFFF"/>
<path transform="matrix(1,0,0,-1,111.3138,178.21161)" d="M0 0C.798 0 1.391-.251 1.778-.755 2.167-1.259 2.277-1.91 2.109-2.707L1.322-6.516C1.112-7.544 .624-8.368-.142-8.986-.907-9.605-1.794-9.915-2.801-9.915H-13.031C-14.06-9.915-14.82-9.605-15.313-8.986-15.806-8.368-15.938-7.544-15.707-6.516L-15.329-4.847H-8.624L-9.223-7.523H-5.603L-4.501-2.392H-11.426C-12.454-2.392-13.215-2.083-13.708-1.463-14.201-.845-14.332-.021-14.102 1.007L-13.314 4.753C-13.146 5.55-12.753 6.201-12.134 6.705-11.516 7.208-10.807 7.46-10.01 7.46H1.574C2.371 7.46 2.964 7.208 3.353 6.705 3.74 6.201 3.851 5.55 3.683 4.753L3.18 2.393H-3.493L-2.896 5.068H-6.516L-7.617 0Z" fill="#FFFFFF"/>
<path transform="matrix(1,0,0,-1,117.7669,173.45874)" d="M0 0C.167 .797 .561 1.448 1.18 1.952 1.799 2.456 2.507 2.707 3.305 2.707H13.817L13.314 .315H6.799L4.092-12.276H10.607L10.104-14.668H.283C-.745-14.668-1.507-14.358-1.999-13.739-2.492-13.121-2.623-12.297-2.393-11.269Z" fill="#FFFFFF"/>
<path transform="matrix(1,0,0,-1,140.0208,173.14374)" d="M0 0-1.669-7.743H1.951L3.619 0ZM-6.799-.315C-6.632 .482-6.238 1.133-5.619 1.637-5 2.141-4.292 2.392-3.494 2.392H8.089C8.887 2.392 9.479 2.141 9.867 1.637 10.256 1.133 10.366 .482 10.198-.315L8.121-10.198H-2.172L-2.707-12.591H7.586L7.082-14.983H-6.516C-7.544-14.983-8.306-14.673-8.798-14.054-9.291-13.436-9.422-12.612-9.191-11.583Z" fill="#FFFFFF"/>
<path transform="matrix(1,0,0,-1,167.3108,188.12659)" d="M0 0H-6.674L-3.463 14.983H-7.083L-10.293 0H-16.998L-13.283 17.375H1.007C1.804 17.375 2.396 17.124 2.785 16.62 3.174 16.116 3.283 15.465 3.116 14.668Z" fill="#FFFFFF"/>
<path transform="matrix(1,0,0,-1,175.1165,188.12659)" d="M0 0C-1.028 0-1.789 .31-2.282 .929-2.775 1.547-2.907 2.371-2.676 3.399L-.221 14.983H-3.463L-2.959 17.375H.283L1.196 21.719H7.9L6.987 17.375H10.262L9.758 14.983H6.484L3.809 2.392H7.082L6.578 0Z" fill="#FFFFFF"/>
<path transform="matrix(1,0,0,-1,212.9202,188.12659)" d="M0 0H-7.209L-4.533 12.591-11.804 0H-14.763L-16.841 12.591-19.516 0H-22.223L-17.627 21.719H-11.08L-9.098 9.852-2.235 21.719H4.595Z" fill="#FFFFFF"/>
<path transform="matrix(1,0,0,-1,225.636,173.14374)" d="M0 0-2.706-12.591H.913L3.62 0ZM-6.799-.315C-6.631 .482-6.237 1.133-5.618 1.637-4.999 2.141-4.291 2.392-3.493 2.392H8.09C8.888 2.392 9.479 2.141 9.868 1.637 10.257 1.133 10.366 .482 10.199-.315L7.838-11.583C7.607-12.612 7.114-13.436 6.358-14.054 5.604-14.673 4.722-14.983 3.715-14.983H-6.516C-7.544-14.983-8.305-14.673-8.797-14.054-9.29-13.436-9.422-12.612-9.19-11.583Z" fill="#FFFFFF"/>
<path transform="matrix(1,0,0,-1,245.3401,173.14374)" d="M0 0-2.706-12.591H.913L3.62 0ZM-6.799-.315C-6.631 .482-6.237 1.133-5.618 1.637-4.999 2.141-4.291 2.392-3.493 2.392H8.09C8.888 2.392 9.479 2.141 9.868 1.637 10.257 1.133 10.366 .482 10.199-.315L7.838-11.583C7.607-12.612 7.114-13.436 6.358-14.054 5.604-14.673 4.722-14.983 3.715-14.983H-6.516C-7.544-14.983-8.305-14.673-8.797-14.054-9.29-13.436-9.422-12.612-9.19-11.583Z" fill="#FFFFFF"/>
<path transform="matrix(1,0,0,-1,272.6624,188.12659)" d="M0 0H-6.674L-3.463 14.983H-7.083L-10.293 0H-16.998L-13.283 17.375H1.007C1.804 17.375 2.396 17.124 2.785 16.62 3.174 16.116 3.283 15.465 3.116 14.668Z" fill="#FFFFFF"/>
<path transform="matrix(1,0,0,-1,59.0633,217.9206)" d="M0 0C-1.028 0-1.789 .31-2.282 .929-2.775 1.547-2.906 2.371-2.675 3.399L.472 18.319C.703 19.347 1.196 20.171 1.952 20.791 2.707 21.409 3.589 21.719 4.595 21.719H16.587L16.021 19.012H7.869L4.218 2.707H12.56L11.994 0Z" fill="#FFFFFF"/>
<path transform="matrix(1,0,0,-1,83.1106,202.93775)" d="M0 0-2.706-12.591H.913L3.62 0ZM-6.799-.315C-6.631 .482-6.237 1.133-5.618 1.637-4.999 2.141-4.291 2.392-3.493 2.392H8.09C8.888 2.392 9.479 2.141 9.868 1.637 10.257 1.133 10.366 .482 10.199-.315L7.838-11.583C7.607-12.612 7.114-13.436 6.358-14.054 5.604-14.673 4.722-14.983 3.715-14.983H-6.516C-7.544-14.983-8.305-14.673-8.797-14.054-9.29-13.436-9.422-12.612-9.19-11.583Z" fill="#FFFFFF"/>
<path transform="matrix(1,0,0,-1,110.4329,217.9206)" d="M0 0H-6.674L-3.463 14.983H-7.083L-10.293 0H-16.998L-13.283 17.375H1.007C1.804 17.375 2.396 17.124 2.785 16.62 3.174 16.116 3.283 15.465 3.116 14.668Z" fill="#FFFFFF"/>
<path transform="matrix(1,0,0,-1,129.0042,208.0055)" d="M0 0C.798 0 1.391-.251 1.778-.755 2.167-1.259 2.277-1.91 2.109-2.707L1.322-6.516C1.112-7.544 .624-8.368-.142-8.986-.907-9.605-1.794-9.915-2.801-9.915H-13.031C-14.06-9.915-14.82-9.605-15.313-8.986-15.806-8.368-15.938-7.544-15.707-6.516L-15.329-4.847H-8.624L-9.223-7.523H-5.603L-4.501-2.392H-11.426C-12.454-2.392-13.215-2.083-13.708-1.463-14.201-.845-14.332-.021-14.102 1.007L-13.314 4.753C-13.146 5.55-12.753 6.201-12.134 6.705-11.516 7.208-10.807 7.46-10.01 7.46H1.574C2.371 7.46 2.964 7.208 3.353 6.705 3.74 6.201 3.851 5.55 3.683 4.753L3.18 2.393H-3.493L-2.896 5.068H-6.516L-7.617 0Z" fill="#FFFFFF"/>
<path transform="matrix(1,0,0,-1,137.9436,217.9206)" d="M0 0C-1.028 0-1.789 .31-2.282 .929-2.775 1.547-2.907 2.371-2.676 3.399L-.221 14.983H-3.463L-2.959 17.375H.283L1.196 21.719H7.9L6.987 17.375H10.262L9.758 14.983H6.484L3.809 2.392H7.082L6.578 0Z" fill="#FFFFFF"/>
<path transform="matrix(1,0,0,-1,164.0999,202.93775)" d="M0 0H-6.516L-9.726-14.983H-16.431L-13.314-.315C-13.146 .482-12.753 1.133-12.134 1.637-11.515 2.141-10.807 2.392-10.009 2.392H.504Z" fill="#FFFFFF"/>
<path transform="matrix(1,0,0,-1,173.0393,200.5456)" d="M0 0-3.21-14.983H.409L3.62 0H10.293L7.335-13.976C7.104-15.004 6.61-15.828 5.855-16.446 5.1-17.065 4.219-17.375 3.211-17.375H-7.019C-8.047-17.375-8.809-17.065-9.301-16.446-9.794-15.828-9.925-15.004-9.694-13.976L-6.704 0Z" fill="#FFFFFF"/>
<path transform="matrix(1,0,0,-1,185.4417,203.25263)" d="M0 0C.167 .797 .561 1.448 1.18 1.952 1.799 2.456 2.507 2.707 3.305 2.707H13.817L13.314 .315H6.799L4.092-12.276H10.607L10.104-14.668H.283C-.745-14.668-1.507-14.358-1.999-13.739-2.492-13.121-2.623-12.297-2.393-11.269Z" fill="#FFFFFF"/>
<path transform="matrix(1,0,0,-1,203.3831,217.9206)" d="M0 0C-1.028 0-1.789 .31-2.282 .929-2.775 1.547-2.907 2.371-2.676 3.399L-.221 14.983H-3.463L-2.959 17.375H.283L1.196 21.719H7.9L6.987 17.375H10.262L9.758 14.983H6.484L3.809 2.392H7.082L6.578 0Z" fill="#FFFFFF"/>
<path transform="matrix(1,0,0,-1,223.4651,198.59394)" d="M0 0H-6.705L-6.201 2.392H.503ZM-4.093-19.327H-10.797L-7.114-1.952H-.409Z" fill="#FFFFFF"/>
<path transform="matrix(1,0,0,-1,231.8997,202.93775)" d="M0 0-2.706-12.591H.913L3.62 0ZM-6.799-.315C-6.631 .482-6.237 1.133-5.618 1.637-4.999 2.141-4.291 2.392-3.493 2.392H8.09C8.888 2.392 9.479 2.141 9.868 1.637 10.257 1.133 10.366 .482 10.199-.315L7.838-11.583C7.607-12.612 7.114-13.436 6.358-14.054 5.604-14.673 4.722-14.983 3.715-14.983H-6.516C-7.544-14.983-8.305-14.673-8.797-14.054-9.29-13.436-9.422-12.612-9.19-11.583Z" fill="#FFFFFF"/>
<path transform="matrix(1,0,0,-1,259.222,217.9206)" d="M0 0H-6.674L-3.463 14.983H-7.083L-10.293 0H-16.998L-13.283 17.375H1.007C1.804 17.375 2.396 17.124 2.785 16.62 3.174 16.116 3.283 15.465 3.116 14.668Z" fill="#FFFFFF"/>
<path transform="matrix(1,0,0,-1,271.4377,126.92493)" d="M0 0C-.025-.029-.199 .041-1.131 .759-5.217 3.906-36.303 29.083-38.359 31.114-38.419 31.174-38.734 31.522-39.165 31.515-39.454 31.51-39.71 31.314-40.064 31.042-49.847 23.552-59.65 16.089-69.456 8.63-74.248 4.986-79.035 1.336-83.874-2.243-84.381-2.617-84.621-2.888-84.618-3.151-84.614-3.631-83.979-3.982-83.855-4.056-82.744-4.717-71.05-13.87-54.291-27.093L-102.85-27.879C-102.85-27.878-108.143-24.014-109.762-22.823-109.762-22.823-115.225-18.804-122.28-13.055-135.6-2.203-149.272 8.209-162.732 18.886-163.295 19.332-163.748 19.561-164.206 19.563-164.966 19.565-165.531 19.029-165.686 18.889-167.973 16.818-224.175-27.302-224.175-27.302-224.216-27.264-224.194-27.09-223.508-26.161-184.956 10.319-164.281 29.882-164.28 29.882-164.276 29.881-110.396 15.375-110.396 15.375L-79.208 39.526C-79.208 39.526-40.508 40.114-40.505 40.114-40.505 40.114-40.498 40.106-40.483 40.091-23.181 22.714-21.607 20.712-14.101 13.455-6.451 6.059 .179 .202 0 0" fill="#FFFFFF"/>
<path transform="matrix(1,0,0,-1,0,841.89)" d="M229.768 699.834H222.71901V706.883H229.768Z" fill="#FFFFFF"/>
<path transform="matrix(1,0,0,-1,0,841.89)" d="M239.151 699.834H232.102V706.883H239.151Z" fill="#FFFFFF"/>
<path transform="matrix(1,0,0,-1,0,841.89)" d="M239.151 710.024H232.102V717.073H239.151Z" fill="#FFFFFF"/>
<path transform="matrix(1,0,0,-1,0,841.89)" d="M229.768 710.024H222.71901V717.073H229.768Z" fill="#FFFFFF"/>
<path transform="matrix(1,0,0,-1,0,841.89)" d="M104.792 699.834H97.743V706.883H104.792Z" fill="#FFFFFF"/>
<path transform="matrix(1,0,0,-1,0,841.89)" d="M114.175 699.834H107.12601V706.883H114.175Z" fill="#FFFFFF"/>
<path transform="matrix(1,0,0,-1,0,841.89)" d="M114.175 710.024H107.12601V717.073H114.175Z" fill="#FFFFFF"/>
<path transform="matrix(1,0,0,-1,0,841.89)" d="M104.792 710.024H97.743V717.073H104.792Z" fill="#FFFFFF"/>
<path transform="matrix(1,0,0,-1,205.8707,68.52722)" d="M0 0C3.845-.198 7.361 .775 10.509 3 12.838 4.645 14.598 6.779 15.782 9.374 17.274 12.645 17.673 16.052 16.925 19.57 16.179 23.08 14.433 26.023 11.762 28.44 11.851 28.436 11.94 28.435 12.028 28.426 12.995 28.327 13.947 28.155 14.884 27.895 17.121 27.271 19.129 26.211 20.912 24.725 21.917 23.887 22.803 22.936 23.576 21.88 24.313 20.873 24.923 19.795 25.413 18.648 25.838 17.653 26.162 16.626 26.379 15.567 26.652 14.227 26.763 12.873 26.696 11.504 26.607 9.698 26.226 7.956 25.564 6.275 25.194 5.335 24.737 4.438 24.197 3.583 23.425 2.359 22.504 1.259 21.435 .284 20.078-.953 18.553-1.929 16.863-2.65 15.716-3.14 14.528-3.49 13.301-3.708 12.181-3.907 11.051-3.985 9.915-3.94 8.193-3.872 6.522-3.543 4.905-2.942 3.119-2.278 1.512-1.312 .056-.088 .032-.068 .002-.053-.025-.036-.016-.024-.008-.012 0 0" fill="#FFFFFF"/>
<g inkscape:groupmode="layer" inkscape:label="Layer 2">
</g>
</g>
</g>
</svg>
